<svg width="24" height="24" viewBox="0 0 24 24" fill="none" xmlns="http://www.w3.org/2000/svg">
<path d="M16.6611 3.00375L14.5024 3C12.0772 3 10.5099 4.73871 10.5099 7.42983V9.47227H8.33944C8.15187 9.47227 8 9.63669 8 9.83949V12.7988C8 13.0016 8.15205 13.1658 8.33944 13.1658H10.5099V20.6329C10.5099 20.8357 10.6618 21 10.8493 21H13.6812C13.8687 21 14.0206 20.8356 14.0206 20.6329V13.1658H16.5584C16.7459 13.1658 16.8978 13.0016 16.8978 12.7988L16.8989 9.83949C16.8989 9.74211 16.863 9.64886 16.7995 9.57995C16.7359 9.51104 16.6493 9.47227 16.5593 9.47227H14.0206V7.74087C14.0206 6.90868 14.204 6.48623 15.2066 6.48623L16.6607 6.48566C16.8481 6.48566 17 6.32124 17 6.11864V3.37077C17 3.16835 16.8483 3.00412 16.6611 3.00375Z" fill="currentColor"/>
</svg>
