<svg width="24" height="24" viewBox="0 0 24 24" fill="none" xmlns="http://www.w3.org/2000/svg">
    <path
        d="M21.625 7.875V4.31934C21.625 4.13873 21.5894 3.95989 21.5202 3.79305C21.4511 3.62621 21.3497 3.47462 21.222 3.34695L19.2776 1.40262C19.0198 1.14487 18.6702 1.00006 18.3057 1H7.875C7.51033 1 7.16059 1.14487 6.90273 1.40273C6.64487 1.66059 6.5 2.01033 6.5 2.375V21.625C6.5 21.9897 6.64487 22.3394 6.90273 22.5973C7.16059 22.8551 7.51033 23 7.875 23H21.625C21.9897 23 22.3394 22.8551 22.5973 22.5973C22.8551 22.3394 23 21.9897 23 21.625V9.25C23 8.88533 22.8551 8.53559 22.5973 8.27773C22.3394 8.01987 21.9897 7.875 21.625 7.875ZM13.375 19.5625C13.375 19.7448 13.3026 19.9197 13.1736 20.0486C13.0447 20.1776 12.8698 20.25 12.6875 20.25H11.3125C11.1302 20.25 10.9553 20.1776 10.8264 20.0486C10.6974 19.9197 10.625 19.7448 10.625 19.5625V18.1875C10.625 18.0052 10.6974 17.8303 10.8264 17.7014C10.9553 17.5724 11.1302 17.5 11.3125 17.5H12.6875C12.8698 17.5 13.0447 17.5724 13.1736 17.7014C13.3026 17.8303 13.375 18.0052 13.375 18.1875V19.5625ZM13.375 14.0625C13.375 14.2448 13.3026 14.4197 13.1736 14.5486C13.0447 14.6776 12.8698 14.75 12.6875 14.75H11.3125C11.1302 14.75 10.9553 14.6776 10.8264 14.5486C10.6974 14.4197 10.625 14.2448 10.625 14.0625V12.6875C10.625 12.5052 10.6974 12.3303 10.8264 12.2014C10.9553 12.0724 11.1302 12 11.3125 12H12.6875C12.8698 12 13.0447 12.0724 13.1736 12.2014C13.3026 12.3303 13.375 12.5052 13.375 12.6875V14.0625ZM18.875 19.5625C18.875 19.7448 18.8026 19.9197 18.6736 20.0486C18.5447 20.1776 18.3698 20.25 18.1875 20.25H16.8125C16.6302 20.25 16.4553 20.1776 16.3264 20.0486C16.1974 19.9197 16.125 19.7448 16.125 19.5625V18.1875C16.125 18.0052 16.1974 17.8303 16.3264 17.7014C16.4553 17.5724 16.6302 17.5 16.8125 17.5H18.1875C18.3698 17.5 18.5447 17.5724 18.6736 17.7014C18.8026 17.8303 18.875 18.0052 18.875 18.1875V19.5625ZM18.875 14.0625C18.875 14.2448 18.8026 14.4197 18.6736 14.5486C18.5447 14.6776 18.3698 14.75 18.1875 14.75H16.8125C16.6302 14.75 16.4553 14.6776 16.3264 14.5486C16.1974 14.4197 16.125 14.2448 16.125 14.0625V12.6875C16.125 12.5052 16.1974 12.3303 16.3264 12.2014C16.4553 12.0724 16.6302 12 16.8125 12H18.1875C18.3698 12 18.5447 12.0724 18.6736 12.2014C18.8026 12.3303 18.875 12.5052 18.875 12.6875V14.0625ZM18.875 9.25H9.25V3.75H16.125V5.8125C16.125 5.99484 16.1974 6.1697 16.3264 6.29864C16.4553 6.42757 16.6302 6.5 16.8125 6.5H18.875V9.25ZM3.75 6.5H2.375C2.01033 6.5 1.66059 6.64487 1.40273 6.90273C1.14487 7.16059 1 7.51033 1 7.875L1 21.625C1 21.9897 1.14487 22.3394 1.40273 22.5973C1.66059 22.8551 2.01033 23 2.375 23H3.75C4.11467 23 4.46441 22.8551 4.72227 22.5973C4.98013 22.3394 5.125 21.9897 5.125 21.625V7.875C5.125 7.51033 4.98013 7.16059 4.72227 6.90273C4.46441 6.64487 4.11467 6.5 3.75 6.5Z"
        fill="currentColor" />
</svg>