<svg width="24" height="24" viewBox="0 0 24 24" fill="none" xmlns="http://www.w3.org/2000/svg">
<path d="M12 15C13.6569 15 15 13.6569 15 12C15 10.3432 13.6569 9 12 9C10.3431 9 9 10.3432 9 12C9 13.6569 10.3431 15 12 15Z" fill="currentColor"/>
<path d="M17.625 3H6.375C5.47989 3 4.62145 3.35558 3.98851 3.98851C3.35558 4.62145 3 5.47989 3 6.375V17.625C3 18.52 3.35558 19.3785 3.98851 20.0115C4.62145 20.6444 5.47989 21 6.375 21H17.625C18.52 21 19.3785 20.6444 20.0115 20.0115C20.6444 19.3785 21 18.52 21 17.625V6.375C21 5.47989 20.6444 4.62145 20.0115 3.98851C19.3785 3.35558 18.52 3 17.625 3ZM12 17.0625C10.9987 17.0625 10.02 16.7656 9.18742 16.2093C8.3549 15.653 7.70603 14.8623 7.32286 13.9373C6.93969 13.0123 6.83943 11.9944 7.03478 11.0124C7.23011 10.0303 7.71226 9.12828 8.42027 8.42027C9.12828 7.71226 10.0303 7.23011 11.0124 7.03478C11.9944 6.83943 13.0123 6.93969 13.9373 7.32286C14.8623 7.70603 15.653 8.3549 16.2093 9.18742C16.7656 10.02 17.0625 10.9987 17.0625 12C17.0625 13.3427 16.5291 14.6304 15.5798 15.5798C14.6304 16.5291 13.3427 17.0625 12 17.0625ZM17.0625 8.0625C16.84 8.0625 16.6225 7.99652 16.4374 7.8729C16.2525 7.74929 16.1083 7.57359 16.0231 7.36801C15.938 7.16245 15.9157 6.93625 15.9591 6.71802C16.0025 6.4998 16.1096 6.29934 16.267 6.142C16.4243 5.98467 16.6248 5.87753 16.843 5.83411C17.0613 5.79071 17.2875 5.81298 17.493 5.89813C17.6986 5.98329 17.8743 6.12748 17.9979 6.31248C18.1216 6.49749 18.1875 6.715 18.1875 6.9375C18.1875 7.23587 18.0689 7.52202 17.858 7.733C17.647 7.94397 17.3608 8.0625 17.0625 8.0625Z" fill="currentColor"/>
</svg>
