<svg width="24" height="24" viewBox="0 0 24 24" fill="none" xmlns="http://www.w3.org/2000/svg">
<path d="M5.00032 3C6.08587 3 7 3.91412 7 4.99966C7 6.14232 6.02872 7.0279 5.00032 6.99933C3.94336 7.0279 3.00065 6.14232 3.00065 4.99966C2.97208 3.88555 3.88624 3 5.00032 3Z" fill="currentColor"/>
<path d="M6.33337 21H3.66667C3.30001 21 3 20.7231 3 20.3846V9.61538C3 9.27693 3.26667 9 3.63332 9H6.33333C6.69999 9 7 9.27693 7 9.61538V20.4155C7.00004 20.7231 6.70003 21 6.33337 21Z" fill="currentColor"/>
<path d="M20.9685 12.96C20.9685 10.74 19.2363 9 16.9055 9H16.2441C14.9843 9 13.7559 9.56998 13.0945 10.5C12.8741 10.71 12.7796 10.8 12.7796 10.8V9.60003C12.7796 9.48003 12.5906 9.30001 12.4646 9.30001H9.31497C9.18899 9.30001 9 9.42001 9 9.57001V20.76C9 20.88 9.18899 21 9.31497 21H12.7795C12.9055 21 13.0945 20.88 13.0945 20.76V14.28C13.0945 13.17 13.9764 12.24 15.1417 12.21C15.7401 12.21 16.2756 12.42 16.685 12.81C17.063 13.17 17.2204 13.68 17.2204 14.25V20.7C17.2204 20.82 17.4094 21 17.5354 21H20.685C20.811 21 21 20.82 21 20.7V12.96H20.9685Z" fill="currentColor"/>
</svg>
