<svg width="24" height="24" viewBox="0 0 24 24" fill="none" xmlns="http://www.w3.org/2000/svg">
<path d="M19.3333 5.76923H16V5.07692C16 4.5261 15.7893 3.99781 15.4143 3.60832C15.0392 3.21882 14.5304 3 14 3H10C9.46957 3 8.96085 3.21882 8.58579 3.60832C8.21072 3.99781 8 4.5261 8 5.07692V5.76923H4.66667C4.48985 5.76923 4.32028 5.84217 4.19527 5.97201C4.07024 6.10183 4 6.27792 4 6.46154C4 6.64515 4.07024 6.82125 4.19527 6.95107C4.32028 7.0809 4.48985 7.15385 4.66667 7.15385H5.33333V19.6154C5.33333 19.9826 5.47381 20.3348 5.72385 20.5944C5.97391 20.8541 6.31304 21 6.66667 21H17.3333C17.6869 21 18.0261 20.8541 18.2761 20.5944C18.5261 20.3348 18.6667 19.9826 18.6667 19.6154V7.15385H19.3333C19.5101 7.15385 19.6797 7.0809 19.8048 6.95107C19.9297 6.82125 20 6.64515 20 6.46154C20 6.27792 19.9297 6.10183 19.8048 5.97201C19.6797 5.84217 19.5101 5.76923 19.3333 5.76923ZM9.33333 5.07692C9.33333 4.89331 9.40357 4.71721 9.5286 4.58739C9.65361 4.45756 9.82319 4.38462 10 4.38462H14C14.1768 4.38462 14.3464 4.45756 14.4714 4.58739C14.5964 4.71721 14.6667 4.89331 14.6667 5.07692V5.76923H9.33333V5.07692ZM17.3333 19.6154H6.66667V7.15385H17.3333V19.6154ZM10.6667 10.6154V16.1538C10.6667 16.3374 10.5964 16.5136 10.4714 16.6434C10.3464 16.7732 10.1768 16.8462 10 16.8462C9.82319 16.8462 9.65361 16.7732 9.5286 16.6434C9.40357 16.5136 9.33333 16.3374 9.33333 16.1538V10.6154C9.33333 10.4318 9.40357 10.2557 9.5286 10.1259C9.65361 9.99602 9.82319 9.92308 10 9.92308C10.1768 9.92308 10.3464 9.99602 10.4714 10.1259C10.5964 10.2557 10.6667 10.4318 10.6667 10.6154ZM14.6667 10.6154V16.1538C14.6667 16.3374 14.5964 16.5136 14.4714 16.6434C14.3464 16.7732 14.1768 16.8462 14 16.8462C13.8232 16.8462 13.6536 16.7732 13.5286 16.6434C13.4036 16.5136 13.3333 16.3374 13.3333 16.1538V10.6154C13.3333 10.4318 13.4036 10.2557 13.5286 10.1259C13.6536 9.99602 13.8232 9.92308 14 9.92308C14.1768 9.92308 14.3464 9.99602 14.4714 10.1259C14.5964 10.2557 14.6667 10.4318 14.6667 10.6154Z" fill="currentColor" />
</svg>
