<svg width="24" height="24" viewBox="0 0 24 24" fill="none" xmlns="http://www.w3.org/2000/svg">
<path d="M12.2201 5C12.7007 5.00263 13.9031 5.014 15.1812 5.06388L15.6348 5.08313C16.921 5.14176 18.2063 5.24327 18.8444 5.41565C19.6949 5.64842 20.3628 6.32571 20.5887 7.18501C20.9487 8.5501 20.9937 11.212 20.9991 11.8569L21 11.9899V12.1422C20.9937 12.7871 20.9487 15.4499 20.5887 16.8141C20.3601 17.676 19.6913 18.3542 18.8444 18.5835C18.2063 18.7559 16.921 18.8574 15.6348 18.916L15.1812 18.9361C13.9031 18.9851 12.7007 18.9974 12.2201 18.9991L12.0086 19H11.779C10.762 18.9939 6.50838 18.9492 5.15471 18.5835C4.30507 18.3507 3.63633 17.6734 3.41042 16.8141C3.0504 15.449 3.0054 12.7871 3 12.1422V11.8569C3.0054 11.212 3.0504 8.54922 3.41042 7.18501C3.63903 6.32308 4.30777 5.64492 5.15561 5.41653C6.50838 5.04988 10.7629 5.00525 11.7799 5H12.2201ZM10.1995 8.93775V15.0631L15.5997 12.0004L10.1995 8.93775Z" fill="currentColor"/>
</svg>
